# xmcd
#
# Track frame offsets: 
#        150
#        13041
#        27132
#        39170
#        53048
#        65309
#        78653
#        90216
#        103254
#        115669
#        128707
#        140517
#        157601
#        170454
#        183064
#        195766
#        211659
#        223622
#        236749
#        252682
#
# Disc length: 3532 seconds
#
# Revision: 0
# Processed by: cddbd v1.5.2PL0 Copyright (c) Steve Scherf et al.
# Submitted via: ExactAudioCopy v1.1
#
DISCID=f80dca14
DTITLE=Various Artist - Rocked By The Hand Of Clapton [CD1)
DYEAR=2014
DGENRE=Blues
TTITLE0=Muddy Waters - Hoochie Coochie Man
TTITLE1=Freddie King - Have You Ever Loved A Woman
TTITLE2=Robert Johnson - Cross Road Blues
TTITLE3=Bo Diddley - Before You Accuse Me
TTITLE4=Otis Rush - Double Trouble
TTITLE5=Bobby Bland - Farther Up The Road
TTITLE6=Jo Stafford - Autumn Leaves
TTITLE7=Leadbelly - Goodnight Irene
TTITLE8=Snooky Pryor - Judgement Day
TTITLE9=Big Bill Broonzy - Hey Hey
TTITLE10=Arthur "Big Boy" Crudup - Mean Old Frisco Blues
TTITLE11=Gene Kelly - Our Love Is Here To Stay
TTITLE12=Chris Kenner - Something You Got
TTITLE13=Elmore James - The Sky Is Crying
TTITLE14=Roy Hawkins - The Thrill Is Gone
TTITLE15=Leroy Carr - Blues Before Sunrise
TTITLE16=Eddie Boyd - Five Long Years
TTITLE17=Little Walter - It Ain't Right
TTITLE18=Fats Waller - My Very Good Friend The Milkman
TTITLE19=Sonny Boy Williamson - Early In The Morning
EXTD=
EXTT0=
EXTT1=
EXTT2=
EXTT3=
EXTT4=
EXTT5=
EXTT6=
EXTT7=
EXTT8=
EXTT9=
EXTT10=
EXTT11=
EXTT12=
EXTT13=
EXTT14=
EXTT15=
EXTT16=
EXTT17=
EXTT18=
EXTT19=
PLAYORDER=
